<svg width="236" height="135" viewBox="0 0 236 135" fill="none" xmlns="http://www.w3.org/2000/svg">
<path d="M23.9241 139.492C24.7114 139.871 25.2735 139.404 25.8386 138.946C27.3552 137.688 28.9702 136.555 30.668 135.556C34.707 133.213 39.1059 132.14 43.7181 131.813L49.9355 131.783C52.9463 132.062 55.9781 132.024 58.981 131.671C62.7485 131.229 66.336 129.814 69.3904 127.565C71.5145 126.017 71.7188 124.052 69.978 122.114C67.8393 119.712 65.0945 118.324 62.042 117.521C54.9712 115.656 48.064 116.568 41.3115 119.013C35.7065 121.043 30.7508 124.103 26.9343 128.781C24.8603 131.331 23.388 134.165 23.1982 137.532C23.1387 138.293 23.0727 139.08 23.9241 139.492Z" fill="#002F5D"/>
<path d="M61.5718 1.03427C62.3223 1.40499 63.0941 1.75167 63.8579 1.12638C64.6216 0.501093 64.4521 -0.40546 64.1782 -1.25175C61.518 -9.46527 62.0578 -17.5107 65.4459 -25.4073C66.8994 -28.8 68.4323 -32.1615 69.8283 -35.5792C71.8768 -40.4214 72.5145 -45.7442 71.6678 -50.9333C70.8438 -55.9641 67.8344 -56.4692 64.1322 -54.5271L63.756 -54.3193C58.0815 -51.0504 54.8638 -45.8869 52.6864 -39.9337C52.2802 -39.1333 52.001 -38.2745 51.8587 -37.3882C48.9527 -27.539 48.9945 -17.801 53.1979 -8.29576C54.9599 -4.31935 57.548 -0.953972 61.5718 1.03427Z" fill="#002F5D"/>
<path d="M185.413 91.1033C183.982 84.7272 180.146 79.8798 175.344 75.7489C166.889 68.4652 156.951 64.4242 145.97 62.8716C140.635 62.1196 135.294 62.0483 130.01 63.3719C129.895 63.363 129.78 63.3657 129.666 63.3801C128.861 63.4641 128.077 63.6933 127.354 64.0567L126.687 64.2746C125.4 64.4915 124.172 64.9745 123.082 65.6927C120.251 66.8714 117.761 68.7424 115.841 71.1339C115.158 71.9523 114.46 72.8444 115.02 74.0038C115.638 75.256 116.774 75.194 117.939 75.1014C129.253 74.1605 139.35 77.319 148.442 84.0353C152.557 87.0647 156.505 90.3132 160.783 93.1193C166.823 97.0825 173.366 99.3687 180.659 99.2064C184.055 99.132 185.95 97.093 185.769 93.7011C185.724 92.8267 185.605 91.9577 185.413 91.1033Z" fill="#002F5D"/>
<path d="M72.0223 128.428C71.4046 128.222 71.1339 128.743 70.8385 129.144C69.9225 130.447 68.8543 131.635 67.6565 132.685C64.1255 135.692 59.9038 136.517 55.4558 136.474C51.6057 136.435 47.7546 136.197 43.9044 136.124C38.2139 136.015 32.7326 136.968 27.5772 139.506C24.3416 141.099 23.9889 143.429 26.6616 145.87C29.0918 148.081 32.015 149.281 35.1794 149.919C42.0531 151.308 48.6712 150.214 55.1331 147.847C60.2507 145.764 64.8928 142.96 68.499 138.696C70.6585 136.121 72.2513 133.252 72.5508 129.81C72.5966 129.28 72.709 128.657 72.0223 128.428Z" fill="#002F5D"/>
<path d="M179.935 102.644C172.58 105.092 165.682 104.07 159.131 100.104C155.908 98.0848 152.821 95.8559 149.891 93.4319C145.321 89.7701 140.765 86.0797 135.656 83.1615C130.182 80.0345 124.365 77.8831 118.089 77.1275C114.492 76.6984 112.215 79.0424 112.603 82.6336C112.688 83.376 112.825 84.1115 113.013 84.8345C114.598 91.0766 118.415 95.8579 123.201 99.9232C130.995 106.537 140.065 110.421 150.106 112.211C157.975 113.616 165.731 113.462 173.324 110.72C176.445 109.498 179.282 107.824 181.559 105.352C182.232 104.619 183.477 103.899 182.808 102.705C182.035 101.387 180.833 102.342 179.935 102.644Z" fill="#002F5D"/>
<path d="M76.2393 -47.4257C77.6229 -42.3835 76.4318 -37.6188 74.4302 -33.0168C72.6927 -29.0148 70.7504 -25.1028 69.0051 -21.0979C66.3625 -14.9841 64.9456 -8.61405 65.6322 -1.88924C65.9408 1.11374 68.1314 2.47529 70.9559 1.41346C72.9383 0.663807 74.7431 -0.490087 76.2556 -1.97488C82.0188 -7.56782 84.7845 -14.5792 85.8677 -22.3929C86.1639 -23.4191 86.2992 -24.4851 86.2685 -25.5528C86.9562 -33.1194 85.9633 -40.3891 82.3073 -47.1517C80.6159 -50.2812 78.3402 -52.9128 75.1055 -54.5751C74.5702 -54.8473 73.9684 -55.2698 73.4259 -54.6018C72.9567 -54.0201 73.377 -53.5193 73.6786 -53.0351C74.8001 -51.2996 75.6628 -49.4099 76.2393 -47.4257Z" fill="#002F5D"/>
<path d="M168.064 141.713C166.229 138.961 163.601 136.832 160.528 135.609C158.959 134.931 157.22 134.753 155.547 135.098C155.169 135.176 154.806 135.311 154.469 135.498C154.34 135.574 154.217 135.67 154.243 135.85C154.249 135.925 154.281 135.996 154.333 136.051C154.385 136.106 154.455 136.141 154.53 136.152C154.713 136.198 154.898 136.233 155.09 136.265C156.149 136.428 157.158 136.828 158.041 137.437C158.924 138.045 159.658 138.845 160.188 139.776C160.6 140.459 160.971 141.165 161.3 141.891C161.987 143.403 162.604 144.949 163.367 146.42C164.432 148.605 166.007 150.502 167.958 151.951C169.006 152.704 170.006 152.367 170.397 151.115C170.539 150.659 170.632 150.19 170.675 149.714C170.88 147.226 170.098 145.015 168.873 142.933C168.659 142.492 168.387 142.082 168.064 141.713Z" fill="#002F5D"/>
<path d="M16.7109 45.72C20.4113 45.1214 24.1691 44.7587 28.076 43.2226C30.4046 42.2932 32.5061 40.8742 34.2382 39.0616C36.1197 37.1453 35.9601 35.4833 33.7284 33.9442C31.3814 32.3317 28.5756 31.5222 25.7304 31.6367C14.9512 31.9803 6.40918 36.5359 0.313465 45.458C-1.46042 47.9335 -2.26851 50.972 -1.95875 54.0017C-1.88796 54.6718 -1.80188 55.3398 -0.998573 55.5694C-0.268478 55.7798 0.12866 55.2731 0.515548 54.7916C4.69523 49.6076 10.1894 46.7898 16.7109 45.72Z" fill="#002F5D"/>
<path d="M-21.4944 -10.4456C-23.2293 -8.80167 -24.3863 -6.64104 -24.7931 -4.28586C-24.8771 -3.82067 -25.092 -3.18891 -24.5642 -2.91748C-24.0364 -2.64604 -23.6721 -3.1977 -23.3654 -3.56362C-20.4782 -7.30234 -16.5349 -8.58231 -11.9971 -8.39427C-9.26589 -8.27676 -6.53636 -8.03898 -3.80503 -7.88759C0.0823918 -7.67179 3.90359 -7.99384 7.572 -9.4126C7.96573 -9.5734 8.38973 -9.70084 8.78666 -9.89141C11.5869 -11.1478 11.9009 -12.9432 9.66132 -15.0026C8.24051 -16.3285 6.49927 -17.262 4.6086 -17.7115C-5.39774 -19.9983 -14.1152 -17.5167 -21.4944 -10.4456Z" fill="#002F5D"/>
<path d="M-15.2846 6.11126C-12.7513 6.75114 -10.1048 6.79946 -7.54992 6.25247C-0.654584 5.52031 5.24003 2.82844 9.78275 -2.54602C11.183 -4.15552 12.0644 -6.15036 12.3118 -8.26929C12.3715 -8.82367 12.4369 -9.43014 11.8497 -9.77949C11.2626 -10.1288 10.7651 -9.84371 10.3117 -9.47856C4.9907 -5.15908 -1.17563 -4.17143 -7.79717 -4.75723C-10.6458 -5.00784 -13.5323 -5.22113 -16.3485 -4.54986C-19.0524 -3.90789 -21.8004 -3.20668 -23.6062 -0.770372C-24.3797 1.02819 -23.2551 2.08287 -22.0422 3.08684C-20.156 4.76855 -17.7954 5.82506 -15.2846 6.11126Z" fill="#002F5D"/>
<path d="M1.41608 59.8797C2.98759 61.0928 4.85121 61.8701 6.819 62.1332C14.4369 63.2179 21.1744 60.982 27.3134 56.5813C27.9767 56.3047 28.5682 55.8806 29.043 55.3412C32.2807 52.9729 34.8321 49.7878 36.4366 46.1112C37.2539 44.3033 37.5976 42.3171 37.4351 40.3396C37.3936 39.8873 37.3946 39.319 36.8057 39.1953C36.2168 39.0716 36.0463 39.6404 35.8667 40.0501C33.7666 44.762 29.9437 47.1954 25.0538 48.1437C22.1975 48.6978 19.3047 49.1011 16.4424 49.5716C15.545 49.6014 14.6575 49.7685 13.8107 50.0671C9.19044 50.7507 4.8447 52.6835 1.24273 55.6567C-0.189005 56.8574 -0.0717929 58.703 1.41608 59.8797Z" fill="#002F5D"/>
<path d="M197.259 34.1757C191.809 33.5881 186.87 37.994 186.412 42.243C186.104 45.0967 188.165 44.6903 191.207 44.2655C191.463 44.2305 191.722 44.2561 191.966 44.3402C192.209 44.4243 192.43 44.5644 192.609 44.7494C192.789 44.9343 192.922 45.1588 192.998 45.4048C193.075 45.6508 193.093 45.9113 193.05 46.1654L192.119 50.5816C192.08 50.8198 192.091 51.0632 192.149 51.2972C192.208 51.5311 192.313 51.7507 192.46 51.9425C192.606 52.1344 192.79 52.2944 193 52.413C193.21 52.5315 193.442 52.6061 193.682 52.6321L196.818 52.9702C197.058 52.9959 197.3 52.9725 197.531 52.9014C197.761 52.8304 197.975 52.7131 198.159 52.5569C198.343 52.4006 198.493 52.2086 198.6 51.9925C198.707 51.7764 198.769 51.5408 198.782 51.3L198.813 46.7866C198.826 46.5293 198.899 46.2785 199.026 46.0545C199.153 45.8305 199.331 45.6396 199.546 45.4971C199.76 45.3546 200.006 45.2647 200.261 45.2344C200.517 45.2042 200.777 45.2346 201.019 45.3231C203.915 46.3881 205.827 47.2228 206.135 44.369C206.593 40.12 202.707 34.7629 197.259 34.1757Z" fill="#002F5D"/>
<path d="M222.203 46.0785C219.235 42.3937 213.531 42.0648 210.658 44.3786C208.725 45.9318 210.247 46.9351 212.351 48.5433C212.527 48.6783 212.669 48.8528 212.766 49.0527C212.863 49.2526 212.912 49.4724 212.908 49.6945C212.905 49.9166 212.849 50.1348 212.746 50.3316C212.643 50.5285 212.496 50.6984 212.315 50.8279L206.72 54.8317C206.547 54.9531 206.402 55.1087 206.292 55.2888C206.183 55.4688 206.112 55.6695 206.083 55.8783C206.055 56.0872 206.069 56.2996 206.127 56.5024C206.184 56.7053 206.282 56.8942 206.416 57.0573L208.124 59.1535C208.255 59.3187 208.419 59.455 208.605 59.5542C208.791 59.6533 208.995 59.713 209.205 59.7297C209.415 59.7463 209.627 59.7195 209.826 59.6509C210.025 59.5823 210.208 59.4734 210.364 59.3309L215.472 54.7175C215.637 54.5687 215.834 54.4607 216.048 54.4021C216.263 54.3434 216.488 54.3357 216.705 54.3797C216.923 54.4237 217.128 54.518 217.302 54.6552C217.477 54.7924 217.617 54.9686 217.711 55.1697C218.83 57.5675 219.487 59.268 221.416 57.7107C224.262 55.4016 225.167 49.7592 222.203 46.0785Z" fill="#002F5D"/>
<path d="M211.51 35.4671C211.645 35.2907 211.819 35.1484 212.019 35.0516C212.219 34.9548 212.439 34.9062 212.661 34.9097C212.883 34.9131 213.101 34.9685 213.298 35.0715C213.495 35.1745 213.665 35.3221 213.794 35.5026L215.116 37.7679C215.237 37.9402 215.393 38.0856 215.573 38.1951C215.753 38.3046 215.954 38.3758 216.162 38.4043C216.371 38.4329 216.584 38.418 216.787 38.3608C216.989 38.3036 217.178 38.2052 217.341 38.0718L219.46 36.3655C219.625 36.2346 219.761 36.071 219.861 35.885C219.96 35.699 220.019 35.4946 220.036 35.2845C220.053 35.0744 220.026 34.8632 219.957 34.6639C219.889 34.4646 219.78 34.2816 219.637 34.1263L217.706 32.3523C217.557 32.1874 217.449 31.9898 217.39 31.7756C217.332 31.5614 217.324 31.3363 217.368 31.1186C217.412 30.9009 217.506 30.6965 217.643 30.5218C217.781 30.3471 217.957 30.207 218.158 30.1126C220.56 28.9902 222.257 28.3337 220.703 26.4048C218.379 23.5196 212.746 22.6375 209.061 25.6052C205.376 28.5729 205.048 34.2737 207.361 37.1466C208.902 39.0929 209.901 37.5709 211.51 35.4671Z" fill="#002F5D"/>
<path d="M65.7802 93.2478C69.2031 94.49 71.4876 95.5041 71.853 92.1146C72.3965 87.0731 67.7814 80.7228 61.3187 80.0261C54.8559 79.3294 48.9935 84.5504 48.4501 89.5919C48.0847 92.9814 50.5328 92.4775 54.1419 91.9933C54.4445 91.9523 54.7525 91.9829 55.0411 92.0828C55.3296 92.1826 55.5907 92.3488 55.8033 92.568C56.0159 92.7872 56.174 93.0533 56.2649 93.3448C56.3558 93.6363 56.377 93.945 56.3268 94.2462L55.2183 99.5016C55.1696 99.7859 55.1797 100.077 55.2478 100.357C55.3159 100.638 55.4407 100.901 55.6143 101.131C55.788 101.361 56.0069 101.554 56.2577 101.696C56.5084 101.839 56.7857 101.928 57.0724 101.96L60.793 102.361C61.0798 102.391 61.3698 102.363 61.6452 102.277C61.9205 102.191 62.1754 102.05 62.3941 101.862C62.6129 101.674 62.7909 101.443 62.9171 101.184C63.0434 100.925 63.1153 100.642 63.1284 100.354L63.1653 94.9834C63.1804 94.6784 63.2669 94.3813 63.4179 94.1158C63.5688 93.8504 63.78 93.6241 64.0344 93.4553C64.2889 93.2864 64.5794 93.1797 64.8826 93.1436C65.1858 93.1076 65.4933 93.1433 65.7802 93.2478Z" fill="#002F5D"/>
<path d="M85.564 104.937C86.8945 107.783 87.6748 109.798 89.9623 107.956C93.371 105.21 94.4318 98.512 90.9142 94.1318C87.3967 89.7516 80.625 89.3717 77.2051 92.1158C74.9135 93.9615 76.7163 95.1495 79.2132 97.0559C79.423 97.2156 79.5923 97.4222 79.7077 97.6593C79.823 97.8963 79.881 98.1571 79.8771 98.4207C79.8733 98.6843 79.8076 98.9433 79.6853 99.1768C79.5631 99.4104 79.3877 99.612 79.1733 99.7654L72.5296 104.518C72.3284 104.663 72.1587 104.847 72.0309 105.059C71.9031 105.271 71.8199 105.507 71.7864 105.752C71.7529 105.998 71.7698 106.248 71.836 106.486C71.9023 106.725 72.0165 106.948 72.1717 107.141L74.1966 109.655C74.3522 109.848 74.5456 110.008 74.765 110.124C74.9844 110.24 75.2252 110.31 75.4726 110.329C75.72 110.349 75.9687 110.318 76.2037 110.238C76.4386 110.158 76.6548 110.031 76.8389 109.864L82.9059 104.421C83.0999 104.243 83.3331 104.113 83.5865 104.041C83.8399 103.97 84.1066 103.959 84.3651 104.009C84.6236 104.059 84.8667 104.169 85.0749 104.33C85.2831 104.492 85.4506 104.699 85.564 104.937Z" fill="#002F5D"/>
<path d="M86.099 75.2185C88.9449 73.888 90.9599 73.1078 89.1138 70.8198C86.3685 67.4112 79.6739 66.3507 75.29 69.8679C70.9061 73.3851 70.5299 80.1572 73.274 83.577C75.12 85.865 76.3081 84.0621 78.2145 81.5652C78.3742 81.3554 78.5808 81.1861 78.8179 81.0708C79.0549 80.9554 79.3157 80.8974 79.5793 80.9013C79.8429 80.9052 80.1019 80.9709 80.3354 81.0931C80.569 81.2153 80.7706 81.3907 80.924 81.6051L82.4933 84.296C82.6377 84.4979 82.8217 84.6681 83.0343 84.7963C83.2468 84.9245 83.4832 85.0079 83.7291 85.0414C83.975 85.075 84.2252 85.058 84.4642 84.9914C84.7033 84.9249 84.9263 84.8102 85.1195 84.6544L87.63 82.6291C87.8232 82.4738 87.9827 82.2807 88.0986 82.0616C88.2145 81.8425 88.2844 81.602 88.304 81.3549C88.3236 81.1078 88.2924 80.8593 88.2125 80.6247C88.1326 80.3901 88.0055 80.1743 87.8392 79.9905L85.5605 77.8742C85.3838 77.6787 85.2554 77.4443 85.1858 77.1901C85.1161 76.9359 85.1071 76.6688 85.1595 76.4105C85.2119 76.1521 85.3241 75.9097 85.4873 75.7027C85.6505 75.4956 85.86 75.3298 86.099 75.2185Z" fill="#002F5D"/>
<path d="M134.681 127.158C134.724 126.76 134.723 126.357 134.713 125.957C134.717 125.923 134.72 125.89 134.724 125.856C134.712 125.479 134.685 125.099 134.643 124.719C134.65 124.655 134.634 124.59 134.626 124.525C134.581 124.143 134.515 123.779 134.438 123.413C134.421 123.325 134.4 123.236 134.38 123.147C134.298 122.792 134.204 122.435 134.095 122.089L134.01 121.827C133.894 121.476 133.766 121.127 133.618 120.784L133.536 120.602C133.397 120.286 133.246 119.98 133.083 119.676C133.048 119.612 133.018 119.545 132.983 119.485L132.986 119.455C131.71 117.16 129.809 115.275 127.504 114.018C125.199 112.761 122.584 112.185 119.964 112.355C117.344 112.525 114.826 113.435 112.703 114.979C110.58 116.524 108.938 118.639 107.969 121.079C106.472 124.843 105.722 131.447 106.376 137.254C106.376 137.254 106.376 137.254 106.373 137.28C106.396 137.459 106.421 137.639 106.443 137.818C106.466 137.998 106.482 138.124 106.504 138.273C106.525 138.422 106.561 138.618 106.587 138.79L106.663 139.242C106.693 139.411 106.729 139.573 106.76 139.738C106.791 139.903 106.821 140.042 106.854 140.192C106.886 140.343 106.925 140.509 106.964 140.667C107.004 140.826 107.034 140.968 107.074 141.116C107.115 141.263 107.155 141.414 107.195 141.565C107.235 141.716 107.28 141.861 107.325 142.005C107.369 142.149 107.414 142.289 107.463 142.43C107.512 142.571 107.56 142.719 107.609 142.856C107.658 142.993 107.708 143.126 107.763 143.249C107.817 143.371 107.872 143.524 107.931 143.643C107.989 143.763 108.039 143.896 108.095 144.037C108.152 144.179 108.218 144.299 108.278 144.434C108.339 144.568 108.4 144.669 108.459 144.784C108.518 144.9 108.598 145.033 108.668 145.153C108.737 145.273 108.795 145.37 108.863 145.475C108.93 145.58 109.015 145.706 109.093 145.82L109.299 146.109C109.381 146.22 109.467 146.327 109.554 146.43L109.687 146.595L105.68 156.601C105.142 156.419 104.568 156.375 104.01 156.472C103.451 156.569 102.925 156.804 102.481 157.157C102.037 157.509 101.687 157.967 101.465 158.489C101.243 159.01 101.155 159.579 101.209 160.144C101.263 160.708 101.458 161.25 101.775 161.72C102.092 162.19 102.522 162.574 103.025 162.835C103.529 163.096 104.089 163.228 104.656 163.217C105.223 163.206 105.779 163.054 106.271 162.773C106.437 163.314 106.736 163.805 107.139 164.202C107.543 164.598 108.04 164.887 108.584 165.043C109.128 165.198 109.703 165.215 110.255 165.092C110.807 164.969 111.32 164.71 111.747 164.338C112.174 163.966 112.5 163.494 112.698 162.963C112.895 162.433 112.957 161.862 112.877 161.301C112.797 160.741 112.579 160.209 112.241 159.755C111.904 159.301 111.458 158.938 110.945 158.7L114.925 148.699C121.975 148.033 131.241 137.567 133.732 131.354C133.897 130.946 134.032 130.532 134.155 130.12C134.161 130.06 134.19 130.003 134.204 129.948C134.314 129.554 134.405 129.161 134.478 128.766C134.486 128.691 134.494 128.613 134.521 128.541C134.586 128.149 134.635 127.759 134.67 127.367C134.668 127.315 134.674 127.229 134.681 127.158Z" fill="#002F5D"/>
<path d="M159.674 14.579C159.34 14.1929 158.973 13.8258 158.604 13.4774L158.45 13.3292C158.094 13.0047 157.728 12.698 157.353 12.4091L157.137 12.2466C156.76 11.9689 156.378 11.7056 155.983 11.4635L155.771 11.3353C155.361 11.0916 154.948 10.8702 154.523 10.6587L154.415 10.6095C154.011 10.4153 153.596 10.2427 153.179 10.0998L152.962 10.0163C152.542 9.86555 152.119 9.73345 151.691 9.61955L151.384 9.53749C150.963 9.43184 150.539 9.34107 150.114 9.2689L149.794 9.23441C149.359 9.18748 148.922 9.11783 148.485 9.09323L148.25 9.06796C147.841 9.04643 147.435 9.04033 147.033 9.04964L146.777 9.05213L146.743 9.04852C143.648 9.1663 140.65 10.1595 138.097 11.9127C135.544 13.666 133.541 16.1075 132.32 18.9536C131.099 21.7998 130.71 24.934 131.199 27.9922C131.687 31.0505 133.033 33.9074 135.081 36.2314C138.236 39.8197 144.766 44.152 151.247 46.5595L151.281 46.5631L151.886 46.7789L152.394 46.9578L152.983 47.1456L153.504 47.3109C153.693 47.3689 153.869 47.4179 154.077 47.4743L154.604 47.6176L155.161 47.7567L155.689 47.8814L156.231 47.9925L156.762 48.0912L157.284 48.1738L157.81 48.2493L158.316 48.3039C158.491 48.3227 158.662 48.3412 158.837 48.36L159.32 48.3857L159.834 48.3997C159.987 48.4162 160.142 48.4028 160.297 48.397L160.796 48.3755L161.24 48.3443L161.724 48.2873C161.866 48.2687 162.007 48.25 162.141 48.2231C162.276 48.1962 162.461 48.1597 162.615 48.1236L162.861 48.0749L171.243 57.6128C170.764 58.0809 170.409 58.6615 170.212 59.3018C170.015 59.942 169.981 60.6214 170.114 61.278C170.247 61.9346 170.542 62.5475 170.973 63.0607C171.403 63.5739 171.955 63.9712 172.579 64.2162C173.202 64.4612 173.877 64.5462 174.542 64.4634C175.207 64.3806 175.84 64.1326 176.384 63.7421C176.929 63.3517 177.367 62.8311 177.658 62.2279C177.95 61.6247 178.085 60.9582 178.053 60.2891C178.712 60.4047 179.389 60.3538 180.022 60.141C180.656 59.9282 181.227 59.5602 181.682 59.0705C182.137 58.5809 182.463 57.9851 182.629 57.3375C182.795 56.6899 182.796 56.0111 182.633 55.3628C182.47 54.7144 182.147 54.1173 181.694 53.6256C181.241 53.134 180.672 52.7634 180.039 52.5478C179.406 52.3322 178.729 52.2783 178.07 52.3911C177.411 52.5039 176.791 52.7797 176.266 53.1934L167.884 43.6556C170.953 35.8638 164.895 20.5128 159.674 14.579Z" fill="#002F5D"/>
<path d="M28.4122 94.7489C28.9149 95.0772 29.4789 95.3004 30.0701 95.4051C30.6613 95.5098 31.2676 95.4939 31.8525 95.3583C32.4374 95.2227 32.9888 94.9702 33.4736 94.616C33.9585 94.2618 34.3667 93.8133 34.6737 93.2973C38.6 86.8326 42.5441 80.3774 46.4559 73.9073C49.6587 68.6369 52.7966 63.3406 55.9705 58.0594C56.1855 57.7062 56.4228 57.3554 56.6601 57.0046L57.0962 57.1495C62.0643 58.897 66.3391 56.7419 68.5589 53.1533C70.5383 49.9453 72.5035 46.7282 74.095 43.3128C75.3376 40.6539 76.4602 37.9219 77.601 35.2295C78.0279 34.2028 77.4971 33.1557 76.4314 32.6719C75.9824 32.4597 75.469 32.4283 74.9975 32.5842C74.526 32.74 74.1324 33.0712 73.8984 33.5092C72.6346 35.7706 71.3816 38.0369 70.1211 40.3024C68.8095 42.6703 67.4978 45.0268 66.186 47.3721C66.0593 47.6206 65.8796 47.8383 65.6595 48.0097C65.4394 48.1811 65.1843 48.302 64.9123 48.364C64.5505 48.449 64.1714 48.4216 63.8256 48.2855C63.4798 48.1493 63.1837 47.9109 62.977 47.6021C62.7597 47.282 62.6469 46.9024 62.6543 46.5157C62.6616 46.1289 62.7886 45.7539 63.0179 45.4422C65.8847 41.0539 68.7541 36.6659 71.6259 32.2781C71.7164 32.1373 71.8139 32.001 71.8932 31.859C72.0461 31.5936 72.1336 31.2957 72.1486 30.9897C72.1636 30.6838 72.1056 30.3787 71.9794 30.0996C71.8533 29.8205 71.6625 29.5755 71.4229 29.3847C71.1833 29.1939 70.9017 29.0628 70.6015 29.0023C69.7736 28.8264 69.0325 29.1719 68.4971 29.9836C65.5945 34.4233 62.6909 38.8616 59.7862 43.2985C59.6591 43.5269 59.4856 43.7261 59.2768 43.8833C59.0681 44.0406 58.8287 44.1523 58.5741 44.2114C58.3195 44.2705 58.0554 44.2756 57.7987 44.2263C57.542 44.1771 57.2985 44.0747 57.0838 43.9256C56.1862 43.2793 56.0398 42.1231 56.7562 41.169C57.8717 39.6896 59.0013 38.2192 60.1234 36.748C62.2072 34.0142 64.2873 31.28 66.3636 28.5454C66.5206 28.3406 66.6347 28.1063 66.6992 27.8564C66.7638 27.6066 66.7774 27.3463 66.7392 27.0911C66.701 26.8359 66.6119 26.5909 66.4771 26.3709C66.3423 26.1508 66.1647 25.9601 65.9547 25.8102C64.9426 25.0725 64.0143 25.1644 63.0471 26.1065C58.1986 30.851 53.8863 36.1141 50.1878 41.8009C49.152 43.3648 48.6243 45.2104 48.6768 47.0855C48.7293 48.9606 49.3595 50.7738 50.4813 52.2773C50.8619 52.7964 51.2912 53.283 51.7132 53.8028C51.596 53.9821 51.4772 54.1763 51.3489 54.3544C47.9066 59.1926 44.4435 64.0134 41.0227 68.8615C36.417 75.3909 31.8236 81.9217 27.2427 88.4538C26.8942 88.9398 26.6476 89.4913 26.5176 90.075C26.3876 90.6587 26.3769 91.2626 26.4861 91.8506C26.5953 92.4385 26.8222 92.9983 27.1532 93.4964C27.4842 93.9945 27.9124 94.4205 28.4122 94.7489Z" fill="#002F5D"/>
<path d="M13.1789 128.066C10.143 120.824 7.05913 113.608 4.00334 106.375C3.79635 105.886 3.62485 105.382 3.41282 104.87C3.58021 104.749 3.73523 104.638 3.89197 104.545C9.4172 100.741 10.4099 94.7091 8.37406 89.7471C6.56098 85.3023 4.72439 80.8661 2.40379 76.6601C0.596207 73.3864 -1.35947 70.1946 -3.30479 67.0114C-4.04022 65.803 -5.51634 65.5648 -6.81488 66.2981C-7.37001 66.6008 -7.78737 67.1056 -7.98051 67.7077C-8.17364 68.3098 -8.12774 68.9631 -7.85232 69.5323C-6.47432 72.5314 -5.08848 75.5275 -3.6948 78.5208C-2.25443 81.6395 -0.812681 84.7571 0.630443 87.8736C0.793324 88.191 0.88416 88.5404 0.896472 88.897C0.908784 89.2536 0.842268 89.6084 0.701667 89.9363C0.516408 90.3722 0.203209 90.7415 -0.196503 90.9955C-0.596212 91.2494 -1.0636 91.3761 -1.53685 91.3587C-2.02971 91.3437 -2.50565 91.1755 -2.8985 90.8775C-3.29135 90.5795 -3.58158 90.1665 -3.72886 89.6959L-10.7993 70.9272C-10.8722 70.7312 -10.9415 70.5355 -11.0293 70.3379C-11.1891 69.9822 -11.4313 69.6696 -11.7358 69.4259C-12.0403 69.1823 -12.3983 69.0145 -12.7804 68.9366C-13.1625 68.8586 -13.5577 68.8727 -13.9333 68.9776C-14.3089 69.0825 -14.6541 69.2752 -14.9405 69.5399C-15.7411 70.2628 -15.9453 71.2834 -15.5059 72.4449C-13.1186 78.7671 -10.7297 85.087 -8.33939 91.4045C-7.80913 92.8054 -8.42147 94.2261 -9.71981 94.6432C-11.0182 95.0603 -12.3578 94.3589 -12.8006 92.9147C-13.4865 90.654 -14.1535 88.3915 -14.8316 86.1278C-16.081 81.9356 -17.3151 77.7413 -18.5872 73.5505C-18.6789 73.2307 -18.8347 72.9329 -19.0452 72.6752C-19.2557 72.4176 -19.5164 72.2055 -19.8115 72.0518C-20.1065 71.8982 -20.4298 71.8062 -20.7616 71.7815C-21.0934 71.7568 -21.4267 71.7999 -21.7413 71.9082C-23.2617 72.3955 -23.865 73.4182 -23.6156 75.12C-22.3639 83.6726 -20.1744 92.0614 -17.0868 100.135C-16.2542 102.375 -14.7499 104.304 -12.7796 105.657C-10.8093 107.01 -8.46917 107.721 -6.07921 107.694C-5.25888 107.695 -4.43758 107.618 -3.58347 107.586C-3.48676 107.841 -3.37597 108.105 -3.29162 108.371C-0.895591 115.543 1.46948 122.724 3.89275 129.888C7.15243 139.523 10.4355 149.152 13.742 158.772C13.9795 159.499 14.3622 160.17 14.8668 160.745C15.3714 161.32 15.9874 161.786 16.6775 162.116C17.3676 162.446 18.1175 162.632 18.8817 162.663C19.6459 162.695 20.4085 162.57 21.1233 162.298C21.8382 162.026 22.4903 161.612 23.0403 161.08C23.5902 160.549 24.0266 159.911 24.3228 159.206C24.6191 158.501 24.7692 157.743 24.7639 156.978C24.7586 156.213 24.5981 155.458 24.2922 154.757C20.5887 145.851 16.9076 136.948 13.1789 128.066Z" fill="#002F5D"/>
<path d="M32.4417 8.90349L32.1026 8.9761C31.2922 6.70402 29.7225 4.78118 27.6587 3.53219C25.595 2.2832 23.1634 1.78455 20.7746 2.12043C20.4016 2.17065 20.0319 2.24265 19.6674 2.33606C19.3544 2.41147 18.9192 2.5377 18.3895 2.70267C16.7274 3.2123 14.0702 4.11902 10.8477 5.2772C9.92721 5.61082 8.95927 5.96568 7.95544 6.33925C4.93944 7.467 1.59709 8.75906 -1.7921 10.1364C-2.38268 10.3776 -2.97327 10.6188 -3.56838 10.8671C-15.8438 15.9425 -28.0984 21.9422 -27.3396 24.9938C-26.8911 26.7697 -22.0732 27.3267 -15.5349 27.2185C-14.7283 27.2076 -13.8952 27.1845 -13.0357 27.1492C-11.0251 27.0723 -8.89263 26.9484 -6.70702 26.785L-3.95419 26.5623C-0.0900633 26.2261 3.85971 25.7937 7.56019 25.3344L9.49882 25.088C13.3537 24.5927 16.8458 24.077 19.5694 23.6367C20.4021 23.5006 21.1561 23.3724 21.8315 23.252C23.1776 23.0207 24.1939 22.8103 24.7782 22.6625C26.7884 22.1588 28.6041 21.0703 29.9957 19.5346C31.3872 17.999 32.2922 16.0852 32.5961 14.0353C38.6418 14.0358 44.5253 15.9903 49.3696 19.6073C49.706 19.8627 50.13 19.974 50.5484 19.9167C50.9668 19.8595 51.3453 19.6383 51.6006 19.302C51.856 18.9657 51.9673 18.5417 51.9101 18.1233C51.8528 17.7049 51.6317 17.3264 51.2954 17.071C47.4501 14.1834 42.9855 12.2305 38.2548 11.3669C43.1783 11.108 48.1029 11.8566 52.727 13.5668C53.1183 13.6949 53.5439 13.6666 53.9148 13.4879C54.2857 13.3093 54.5731 12.9941 54.7168 12.6083C54.8605 12.2225 54.8494 11.7961 54.6859 11.4183C54.5223 11.0405 54.2189 10.7406 53.8392 10.5815C50.4745 9.33831 46.9551 8.56254 43.3795 8.27587C46.6833 6.50494 49.7137 4.26569 52.3767 1.62761C52.6543 1.32516 52.8045 0.927286 52.7961 0.51684C52.7877 0.106394 52.6212 -0.284973 52.3314 -0.57575C52.0416 -0.866527 51.6508 -1.0343 51.2404 -1.04412C50.83 -1.05393 50.4316 -0.905044 50.1282 -0.628456C47.3433 2.13358 44.124 4.41989 40.5987 6.13933C44.1075 2.56339 46.9861 -1.58036 49.1126 -6.11654C49.201 -6.30596 49.2512 -6.51094 49.2604 -6.71976C49.2695 -6.92859 49.2375 -7.13717 49.166 -7.33361C49.0946 -7.53005 48.9852 -7.71048 48.844 -7.86463C48.7028 -8.01877 48.5326 -8.14359 48.3432 -8.23198C48.1538 -8.32036 47.9488 -8.37057 47.74 -8.37974C47.5312 -8.3889 47.3226 -8.35685 47.1262 -8.2854C46.9297 -8.21396 46.7493 -8.10452 46.5951 -7.96334C46.441 -7.82216 46.3162 -7.652 46.2278 -7.46258C43.144 -0.89469 38.3902 4.7487 32.4417 8.90349Z" fill="#002F5D"/>
<path d="M113.215 33.1366C113.038 32.9189 112.782 32.78 112.504 32.7499C112.225 32.7199 111.946 32.8012 111.727 32.9762C109.247 35.0046 107.274 37.5834 105.965 40.5077C106.58 37.2828 107.846 34.2173 109.688 31.4992C109.777 31.3846 109.842 31.2529 109.878 31.1122C109.915 30.9715 109.922 30.8249 109.899 30.6813C109.877 30.5377 109.825 30.4003 109.748 30.2775C109.67 30.1547 109.568 30.0491 109.448 29.9673C109.328 29.8855 109.192 29.8292 109.049 29.8019C108.906 29.7746 108.76 29.7768 108.618 29.8085C108.476 29.8402 108.342 29.9006 108.225 29.9861C108.107 30.0715 108.008 30.1802 107.934 30.3053C106.593 32.2836 105.531 34.4376 104.779 36.7063C104.155 34.2911 103.186 31.9785 101.902 29.8395C101.83 29.7203 101.735 29.6164 101.623 29.5338C101.511 29.4511 101.384 29.3914 101.249 29.358C101.114 29.3245 100.973 29.318 100.836 29.3388C100.698 29.3597 100.566 29.4074 100.447 29.4793C100.327 29.5512 100.224 29.6459 100.141 29.758C100.058 29.8701 99.9986 29.9973 99.9652 30.1325C99.9317 30.2676 99.9252 30.408 99.9461 30.5457C99.9669 30.6833 100.015 30.8156 100.087 30.9348C101.427 33.1726 102.392 35.6148 102.943 38.1645C101.184 35.3221 98.9549 32.7986 96.3515 30.7015C96.2431 30.6142 96.1185 30.5491 95.9848 30.51C95.8512 30.4708 95.7112 30.4583 95.5727 30.4733C95.4343 30.4883 95.3001 30.5303 95.1779 30.5971C95.0558 30.6639 94.9479 30.7541 94.8606 30.8626C94.7733 30.9711 94.7082 31.0957 94.669 31.2293C94.6299 31.363 94.6174 31.503 94.6324 31.6415C94.6473 31.7799 94.6894 31.914 94.7562 32.0362C94.823 32.1584 94.9132 32.2662 95.0217 32.3536C98.7917 35.3946 101.696 39.3733 103.444 43.8907C103.435 43.9688 103.427 44.0432 103.438 44.1196C101.836 44.2806 100.339 44.9894 99.1998 46.1263C98.0603 47.2632 97.3481 48.7585 97.1834 50.3597C97.1586 50.6086 97.1467 50.8585 97.1478 51.1086C97.1473 51.3231 97.1598 51.6256 97.1804 51.9929C97.2475 53.1519 97.4103 55.0288 97.6528 57.2832C97.7232 57.9331 97.7992 58.6138 97.8806 59.3252C98.1289 61.4559 98.4342 63.8262 98.788 66.2356C98.8514 66.6603 98.9114 67.0808 98.9789 67.5021C100.313 76.2539 102.245 85.1455 104.339 85.134C105.559 85.1263 106.687 82.0976 107.662 77.8365C107.783 77.3113 107.898 76.7704 108.014 76.2109C108.284 74.8962 108.54 73.4973 108.782 72.0555C108.885 71.4568 108.98 70.8498 109.076 70.2391C109.476 67.6851 109.824 65.0502 110.115 62.5936C110.162 62.1546 110.209 61.723 110.254 61.2989C110.532 58.7242 110.784 56.3839 110.914 54.5498C110.974 53.9917 110.995 53.4821 111.026 53.0262C111.082 52.1176 111.115 51.4249 111.11 51.0216C111.102 49.6406 110.684 48.2931 109.911 47.1492C109.137 46.0054 108.041 45.1164 106.763 44.5947C107.724 40.6814 109.924 37.1836 113.036 34.6228C113.256 34.4494 113.399 34.1955 113.433 33.9168C113.466 33.6381 113.388 33.3575 113.215 33.1366Z" fill="#002F5D"/>
<path d="M96.6634 -6.06072C93.3562 -3.12182 91.233 0.921207 90.6907 5.31216C90.1484 9.70312 91.2243 14.1412 93.7172 17.7964C96.2101 21.4516 99.9491 24.0734 104.235 25.1715C108.521 26.2697 113.06 25.7689 117.003 23.7628C120.947 21.7568 124.024 18.3829 125.66 14.2722C127.296 10.1615 127.379 5.59554 125.892 1.42841C124.406 -2.73872 121.452 -6.22162 117.584 -8.36885C113.716 -10.5161 109.198 -11.1806 104.875 -10.238C106.662 -12.8457 106.808 -16.3304 104.906 -19.6443C101.629 -18.6389 99.4641 -16.3993 98.7093 -13.6917C95.7778 -15.5132 91.956 -15.6391 88.2872 -13.5881C89.5906 -9.16428 92.8423 -6.47262 96.6634 -6.06072Z" fill="#002F5D"/>
</svg>
